# xmcd CD database file generated by libcdaudio 0.99.1
# 
# Track frame offsets:
#       150
#       21544
#       40461
#       51911
#       61870
#       80782
#       94767
#       110079
#       127256
#       143010
#       154735
#       167979
#       188401
#       204611
#       225890
# 
# Disc length: 3251 seconds
# 
# Revision: 4
# Processed by: cddbd v1.4b41PL1 Copyright (c) Steve Scherf et al.
# Submitted via: libcdaudio 0.99.1
# 
DISCID=d30cb10f
DTITLE=Murali Coryell - 2120
DYEAR=1900
DGENRE=
TTITLE0=I'm Satisfied
TTITLE1=Louise
TTITLE2=Who Told You
TTITLE3=Hidden Charms
TTITLE4=All Your Love
TTITLE5=She's Into Somethin'
TTITLE6=I Can't Hold Out
TTITLE7=So Many Roads, So Many Trains
TTITLE8=That's How It Is (When Your In Love)
TTITLE9=Who's Been Talking
TTITLE10=Pills
TTITLE11=All My Whole Life
TTITLE12=Stop
TTITLE13=Bright Lights, Big City
TTITLE14=Sexual Healing
EXTD=
EXTT0=
EXTT1=
EXTT2=
EXTT3=
EXTT4=
EXTT5=
EXTT6=
EXTT7=
EXTT8=
EXTT9=
EXTT10=
EXTT11=
EXTT12=
EXTT13=
EXTT14=
PLAYORDER=
